<svg width="29" height="30" viewBox="0 0 29 30" fill="none" xmlns="http://www.w3.org/2000/svg">
<path d="M28.7144 12.1871C28.8993 13.1913 29 14.2412 29 15.3368C29 23.9064 23.3422 30 14.7969 30C12.8535 30.0006 10.9292 29.613 9.13365 28.8594C7.33814 28.1058 5.70672 27.0009 4.33258 25.6079C2.95845 24.2149 1.86854 22.5611 1.12514 20.741C0.381736 18.9208 -0.000591818 16.97 6.87613e-07 15C-0.000591818 13.03 0.381736 11.0792 1.12514 9.25904C1.86854 7.43888 2.95845 5.78506 4.33258 4.39206C5.70672 2.99906 7.33814 1.89419 9.13365 1.14058C10.9292 0.386977 12.8535 -0.000599942 14.7969 6.97052e-07C18.7922 6.97052e-07 22.1307 1.49025 24.692 3.91L20.5208 8.13846V8.12779C18.9681 6.6284 16.9975 5.8589 14.7969 5.8589C9.91468 5.8589 5.94641 10.0401 5.94641 14.9909C5.94641 19.9401 9.91468 24.1304 14.7969 24.1304C19.2266 24.1304 22.2419 21.5629 22.8612 18.0369H14.7969V12.1871H28.7159H28.7144Z" fill="white"/>
</svg>
