<svg width="174" height="41" viewBox="0 0 174 41" fill="none" xmlns="http://www.w3.org/2000/svg">
<path d="M50.596 35.2L42.496 19.756V37H36.808V11.8H44.584L50.668 23.896L56.716 11.8H64.492V37H58.66V19.9L50.596 35.2ZM68.733 27.748C68.733 26.38 68.973 25.108 69.453 23.932C69.957 22.756 70.641 21.748 71.505 20.908C72.369 20.044 73.389 19.372 74.565 18.892C75.765 18.388 77.049 18.136 78.417 18.136C79.785 18.136 81.069 18.388 82.269 18.892C83.469 19.372 84.501 20.044 85.365 20.908C86.229 21.748 86.901 22.756 87.381 23.932C87.885 25.108 88.137 26.38 88.137 27.748C88.137 29.116 87.885 30.388 87.381 31.564C86.877 32.74 86.193 33.76 85.329 34.624C84.465 35.464 83.433 36.136 82.233 36.64C81.057 37.12 79.785 37.36 78.417 37.36C77.049 37.36 75.765 37.12 74.565 36.64C73.389 36.136 72.369 35.452 71.505 34.588C70.641 33.724 69.957 32.704 69.453 31.528C68.973 30.352 68.733 29.092 68.733 27.748ZM78.417 32.428C79.593 32.428 80.553 31.996 81.297 31.132C82.065 30.244 82.449 29.116 82.449 27.748C82.449 26.38 82.065 25.252 81.297 24.364C80.553 23.452 79.593 22.996 78.417 22.996C77.241 22.996 76.281 23.452 75.537 24.364C74.793 25.252 74.421 26.38 74.421 27.748C74.421 29.116 74.793 30.244 75.537 31.132C76.281 31.996 77.241 32.428 78.417 32.428ZM91.85 37V18.424H97.682V21.448C98.402 20.368 99.254 19.552 100.238 19C101.246 18.424 102.35 18.136 103.55 18.136C105.35 18.136 106.826 18.736 107.978 19.936C109.13 21.112 109.706 22.624 109.706 24.472V37H103.874V26.164C103.874 25.132 103.586 24.304 103.01 23.68C102.458 23.032 101.714 22.708 100.778 22.708C100.154 22.708 99.578 22.84 99.05 23.104C98.546 23.344 98.09 23.728 97.682 24.256V37H91.85ZM126.956 37V34.588C126.356 35.356 125.564 35.968 124.58 36.424C123.62 36.88 122.588 37.108 121.484 37.108C120.356 37.108 119.288 36.868 118.28 36.388C117.272 35.884 116.396 35.212 115.652 34.372C114.932 33.508 114.356 32.5 113.924 31.348C113.492 30.196 113.276 28.972 113.276 27.676C113.276 26.38 113.492 25.168 113.924 24.04C114.38 22.888 114.992 21.892 115.76 21.052C116.552 20.212 117.476 19.552 118.532 19.072C119.588 18.568 120.716 18.316 121.916 18.316C122.876 18.316 123.788 18.508 124.652 18.892C125.516 19.276 126.26 19.828 126.884 20.548V11.26L132.716 10.36V37H126.956ZM119 27.712C119 29.008 119.42 30.1 120.26 30.988C121.124 31.852 122.18 32.284 123.428 32.284C124.124 32.284 124.76 32.164 125.336 31.924C125.912 31.66 126.428 31.288 126.884 30.808V24.544C126.428 24.088 125.9 23.74 125.3 23.5C124.724 23.236 124.1 23.104 123.428 23.104C122.156 23.104 121.1 23.548 120.26 24.436C119.42 25.3 119 26.392 119 27.712ZM142.781 37.288C140.909 37.288 139.373 36.772 138.173 35.74C136.973 34.684 136.373 33.328 136.373 31.672C136.373 29.968 137.009 28.648 138.281 27.712C139.553 26.752 141.329 26.272 143.609 26.272C144.281 26.272 144.965 26.344 145.661 26.488C146.357 26.608 147.113 26.824 147.929 27.136V25.624C147.929 24.736 147.617 24.064 146.993 23.608C146.393 23.152 145.481 22.924 144.257 22.924C143.561 22.924 142.781 23.032 141.917 23.248C141.077 23.44 140.117 23.764 139.037 24.22L137.021 20.152C138.533 19.48 139.985 18.976 141.377 18.64C142.793 18.304 144.185 18.136 145.553 18.136C148.121 18.136 150.113 18.748 151.529 19.972C152.969 21.196 153.689 22.912 153.689 25.12V37H147.929V35.38C147.113 36.052 146.297 36.544 145.481 36.856C144.665 37.144 143.765 37.288 142.781 37.288ZM141.737 31.564C141.737 32.164 141.989 32.632 142.493 32.968C142.997 33.28 143.693 33.436 144.581 33.436C145.181 33.436 145.757 33.364 146.309 33.22C146.885 33.052 147.425 32.812 147.929 32.5V30.124C147.401 30.004 146.861 29.908 146.309 29.836C145.781 29.764 145.253 29.728 144.725 29.728C143.765 29.728 143.021 29.884 142.493 30.196C141.989 30.508 141.737 30.964 141.737 31.564ZM161 15.544C160.088 15.544 159.308 15.232 158.66 14.608C158.036 13.96 157.724 13.192 157.724 12.304C157.724 11.416 158.048 10.648 158.696 10C159.344 9.352 160.112 9.028 161 9.028C161.888 9.028 162.656 9.352 163.304 10C163.976 10.648 164.312 11.416 164.312 12.304C164.312 13.192 163.988 13.96 163.34 14.608C162.716 15.232 161.936 15.544 161 15.544ZM163.916 18.424V37H158.084V18.424H163.916Z" fill="#FF725E"/>
<path d="M26.66 25.0217H24.83C24.7303 23.0628 24.3324 21.1306 23.65 19.2917L25.11 18.5017C25.3434 18.3757 25.5172 18.1621 25.5931 17.908C25.6691 17.6539 25.641 17.38 25.515 17.1467C25.389 16.9133 25.1755 16.7395 24.9214 16.6635C24.6673 16.5876 24.3934 16.6157 24.16 16.7417L21.16 18.0217H6.61L3.53 16.7417C3.29661 16.6157 3.02273 16.5876 2.76862 16.6635C2.51451 16.7395 2.30098 16.9133 2.175 17.1467C2.04902 17.38 2.02092 17.6539 2.09687 17.908C2.17282 18.1621 2.34661 18.3757 2.58 18.5017L4.08 19.3017C3.39997 21.1378 3.00212 23.0663 2.9 25.0217H1C0.734784 25.0217 0.480429 25.127 0.292893 25.3145C0.105357 25.5021 0 25.7564 0 26.0217C0 26.2869 0.105357 26.5412 0.292893 26.7288C0.480429 26.9163 0.734784 27.0217 1 27.0217H2.93C3.02165 29.1756 3.58852 31.2825 4.59 33.1917L2.7 34.5117C2.5737 34.577 2.46277 34.6684 2.37463 34.78C2.28648 34.8916 2.22314 35.0207 2.18883 35.1586C2.15452 35.2966 2.15002 35.4403 2.17565 35.5802C2.20128 35.7201 2.25644 35.8528 2.33745 35.9697C2.41845 36.0865 2.52345 36.1848 2.64543 36.2578C2.7674 36.3309 2.90356 36.3771 3.04481 36.3934C3.18606 36.4097 3.32916 36.3956 3.46456 36.3522C3.59996 36.3088 3.72454 36.237 3.83 36.1417L5.67 34.8517C6.54673 35.9313 7.63324 36.822 8.86387 37.47C10.0945 38.118 11.4437 38.5097 12.83 38.6217V20.0217H14.83V38.6217C16.2148 38.5122 17.5631 38.1236 18.7936 37.4791C20.0241 36.8346 21.1115 35.9476 21.99 34.8717L23.83 36.1417C23.9377 36.2172 24.0592 36.2707 24.1876 36.2993C24.316 36.3278 24.4487 36.3308 24.5782 36.3081C24.7078 36.2853 24.8316 36.2373 24.9425 36.1667C25.0535 36.0961 25.1495 36.0043 25.225 35.8967C25.3005 35.789 25.3541 35.6675 25.3826 35.5391C25.4112 35.4107 25.4142 35.278 25.3914 35.1484C25.3687 35.0189 25.3206 34.8951 25.25 34.7841C25.1794 34.6731 25.0877 34.5772 24.98 34.5017L23.12 33.2017C24.1197 31.2888 24.6832 29.1782 24.77 27.0217H26.66C26.9252 27.0217 27.1796 26.9163 27.3671 26.7288C27.5546 26.5412 27.66 26.2869 27.66 26.0217C27.66 25.7564 27.5546 25.5021 27.3671 25.3145C27.1796 25.127 26.9252 25.0217 26.66 25.0217V25.0217ZM6.74 22.7617C6.74 22.376 6.85437 21.999 7.06863 21.6783C7.2829 21.3576 7.58745 21.1077 7.94377 20.9601C8.30008 20.8125 8.69216 20.7739 9.07043 20.8491C9.44869 20.9244 9.79615 21.1101 10.0689 21.3828C10.3416 21.6555 10.5273 22.003 10.6025 22.3812C10.6778 22.7595 10.6392 23.1516 10.4916 23.5079C10.344 23.8642 10.094 24.1688 9.77336 24.383C9.45269 24.5973 9.07567 24.7117 8.69 24.7117C8.17283 24.7117 7.67684 24.5062 7.31114 24.1405C6.94545 23.7748 6.74 23.2788 6.74 22.7617V22.7617ZM9.83 32.4817C9.51751 32.4817 9.21203 32.389 8.9522 32.2154C8.69237 32.0418 8.48986 31.795 8.37027 31.5063C8.25068 31.2176 8.21939 30.8999 8.28036 30.5934C8.34132 30.2869 8.4918 30.0054 8.71277 29.7844C8.93374 29.5635 9.21527 29.413 9.52176 29.352C9.82825 29.2911 10.1459 29.3223 10.4346 29.4419C10.7233 29.5615 10.9701 29.764 11.1437 30.0239C11.3173 30.2837 11.41 30.5892 11.41 30.9017C11.41 31.3207 11.2435 31.7226 10.9472 32.0189C10.6509 32.3152 10.249 32.4817 9.83 32.4817V32.4817ZM18.26 32.4817C17.9471 32.4836 17.6406 32.3927 17.3795 32.2203C17.1183 32.0478 16.9143 31.8018 16.7932 31.5133C16.672 31.2247 16.6393 30.9067 16.6992 30.5996C16.759 30.2924 16.9087 30.01 17.1292 29.788C17.3498 29.566 17.6313 29.4146 17.9381 29.3528C18.2448 29.291 18.563 29.3217 18.8523 29.441C19.1416 29.5603 19.389 29.7628 19.563 30.0228C19.7371 30.2829 19.83 30.5887 19.83 30.9017C19.83 31.3207 19.6635 31.7226 19.3672 32.0189C19.0709 32.3152 18.669 32.4817 18.25 32.4817H18.26ZM19.39 24.7117C19.0043 24.7117 18.6273 24.5973 18.3066 24.383C17.986 24.1688 17.736 23.8642 17.5884 23.5079C17.4408 23.1516 17.4022 22.7595 17.4775 22.3812C17.5527 22.003 17.7384 21.6555 18.0111 21.3828C18.2839 21.1101 18.6313 20.9244 19.0096 20.8491C19.3878 20.7739 19.7799 20.8125 20.1362 20.9601C20.4925 21.1077 20.7971 21.3576 21.0114 21.6783C21.2256 21.999 21.34 22.376 21.34 22.7617C21.34 23.2788 21.1346 23.7748 20.7689 24.1405C20.4032 24.5062 19.9072 24.7117 19.39 24.7117V24.7117Z" fill="#FF725E"/>
<path d="M7.05999 10.2817C7.2586 10.2101 7.44183 10.1015 7.59999 9.96165C7.91349 10.1278 8.21137 10.3219 8.48999 10.5417C8.83421 10.8259 9.15216 11.1405 9.43999 11.4817C8.37724 12.4484 7.43085 13.5357 6.61999 14.7217C6.21999 15.2917 6.70999 16.0017 7.47999 16.0017H20.27C21.04 16.0017 21.53 15.2917 21.13 14.7217C20.3037 13.5178 19.3369 12.4167 18.25 11.4417C18.5263 11.1155 18.8308 10.8144 19.16 10.5417C19.4386 10.3219 19.7365 10.1278 20.05 9.96165C20.3329 10.2093 20.6902 10.3555 21.0655 10.3772C21.4408 10.3989 21.8126 10.2948 22.1222 10.0815C22.4317 9.86817 22.6613 9.55772 22.7745 9.19927C22.8878 8.84082 22.8784 8.45483 22.7476 8.10236C22.6169 7.74989 22.3724 7.45106 22.0528 7.25316C21.7332 7.05525 21.3567 6.96956 20.9829 7.00963C20.6091 7.04971 20.2594 7.21327 19.989 7.47444C19.7186 7.73561 19.543 8.07948 19.49 8.45165C19.0223 8.68164 18.5799 8.95981 18.17 9.28165C17.7377 9.63738 17.3393 10.0324 16.98 10.4617C16.0636 9.78271 14.9687 9.38646 13.83 9.32165C12.6799 9.40065 11.578 9.8143 10.66 10.5117C10.292 10.0711 9.88351 9.66604 9.43999 9.30165C9.03006 8.97981 8.58767 8.70164 8.11999 8.47165C8.06989 8.12945 7.9154 7.81105 7.67761 7.55992C7.43981 7.30879 7.13031 7.13717 6.79135 7.06849C6.45239 6.9998 6.1005 7.0374 5.7837 7.17616C5.46691 7.31491 5.20066 7.54805 5.02129 7.84375C4.84193 8.13946 4.75821 8.48331 4.78154 8.82837C4.80487 9.17343 4.93413 9.50288 5.15167 9.77175C5.36921 10.0406 5.66443 10.2358 5.99702 10.3306C6.32961 10.4255 6.68336 10.4153 7.00999 10.3017L7.05999 10.2817Z" fill="#FF725E"/>
</svg>
